<?xml version="1.0" encoding="UTF-8" standalone="no"?>
<svg
   xmlns:dc="http://purl.org/dc/elements/1.1/"
   xmlns:cc="http://creativecommons.org/ns#"
   xmlns:rdf="http://www.w3.org/1999/02/22-rdf-syntax-ns#"
   xmlns:svg="http://www.w3.org/2000/svg"
   xmlns="http://www.w3.org/2000/svg"
   xmlns:sodipodi="http://sodipodi.sourceforge.net/DTD/sodipodi-0.dtd"
   xmlns:inkscape="http://www.inkscape.org/namespaces/inkscape"
   width="24"
   height="24"
   version="1"
   id="svg23"
   sodipodi:docname="mozilla-firefox-avatar-purple.svg"
   inkscape:version="0.92.4 5da689c313, 2019-01-14">
  <metadata
     id="metadata29">
    <rdf:RDF>
      <cc:Work
         rdf:about="">
        <dc:format>image/svg+xml</dc:format>
        <dc:type
           rdf:resource="http://purl.org/dc/dcmitype/StillImage" />
        <dc:title></dc:title>
      </cc:Work>
    </rdf:RDF>
  </metadata>
  <defs
     id="defs27" />
  <sodipodi:namedview
     pagecolor="#ffffff"
     bordercolor="#666666"
     borderopacity="1"
     objecttolerance="10"
     gridtolerance="10"
     guidetolerance="10"
     inkscape:pageopacity="0"
     inkscape:pageshadow="2"
     inkscape:window-width="1212"
     inkscape:window-height="1025"
     id="namedview25"
     showgrid="false"
     inkscape:zoom="64"
     inkscape:cx="19.037327"
     inkscape:cy="4.9591041"
     inkscape:window-x="0"
     inkscape:window-y="0"
     inkscape:window-maximized="0"
     inkscape:current-layer="layer5" />
  <g
     inkscape:groupmode="layer"
     id="layer4"
     inkscape:label="Firefox"
     style="display:inline">
    <path
       style="opacity:0.2"
       d="m 19.191406,5.9003906 c 0.361415,0.5990539 0.635557,1.2540515 0.8125,1.9492188 1.55e-4,6.074e-4 -1.54e-4,0.00135 0,0.00195 0.34554,0.2257271 0.660493,0.4848995 0.931641,0.7929687 0.207538,0.2357759 0.373162,0.4941249 0.515625,0.7675782 C 21.010377,8.1422217 20.325153,6.9846561 19.435547,6.0078125 19.471087,6.0064625 19.286609,5.864962 19.191406,5.9003906 Z M 5.9023438,8.5449219 C 5.6542059,8.3851222 5.7255366,9.7492549 5.6914062,8.953125 3.3521702,10.762114 2,9.4540949 2,12.617188 c 0,5.200663 4.0677295,9.452945 9.228516,9.84375 0.05843,-0.0363 0.105408,-0.08055 0.166015,-0.115235 0.832154,-0.481383 1.868079,-0.806015 2.955078,-1.003906 1.7e-5,-0.0027 3.4e-5,-0.0055 0,-0.0078 l -0.265625,0.04492 V 21.054688 20.619141 L 13.810547,20.53125 C 13.339688,20.380773 13.046896,20.308027 12.697266,20.080078 12.347635,19.85213 12.135046,19.501549 11.998047,19.248047 11.701017,18.698423 11.513672,18.111179 11.382812,17.400391 9.4684043,16.847851 7.7003178,15.730807 7.3320312,14.65625 6.9877771,13.651812 7.0751098,12.522906 8.0117188,11.898438 c 0.5087349,-0.322941 1.250412,-0.642245 2.4238282,-0.679688 1.071913,-0.704952 0.551562,-0.624459 0.5,-0.837891 C 10.602565,10.289806 10.011417,10.16379 9.1953125,9.5214844 8.4724791,8.9525862 8.135779,8.7364734 6.0292969,8.7167969 5.9795527,8.6210114 5.937792,8.5677504 5.9023438,8.5449219 Z M 21.980469,12.195312 c -0.02508,1.330403 -0.30329,2.503797 -0.929688,3.929688 -0.274993,0.625975 -0.406361,1.02217 -0.46875,1.535156 C 21.476094,16.182994 22,14.463923 22,12.617188 c 0,-0.142342 -0.01351,-0.281 -0.01953,-0.421876 z"
       id="path2"
       inkscape:connector-curvature="0" />
    <path
       style="fill:#ffde3f"
       d="m 15.144531,1 c -3.805673,2.5865397 -3.760481,5.9252129 -3.642578,9.107422 0.219617,-0.6789957 0.5722,-1.2492424 1.017578,-1.732422 0.933622,-1.0128599 2.201526,-1.5270867 3.646485,-1.5429688 0.206422,-0.00227 0.415678,0.00535 0.628906,0.023438 1.238474,0.1050369 2.315435,0.4208185 3.179687,0.9765624 C 19.734277,7.3587335 19.459356,6.8893399 19.103516,6.4335938 17.091443,3.8566146 15.566367,2.122979 15.144531,1 Z"
       id="path4"
       inkscape:connector-curvature="0" />
    <path
       inkscape:connector-curvature="0"
       style="fill:#ff750e"
       d="M 4.978,7.6573284 C 5.6726684,6.9680315 6.8069856,5.3629789 8.1604043,4.9180435 7.796792,6.8561313 8.268184,7.4721295 8.5028149,8.463 L 6.3275007,7.8990294 Z"
       id="path8" />
    <path
       style="fill:#8357cd"
       d="M 12 7 A 5 5 0 0 0 7 12 A 5 5 0 0 0 11.304688 16.939453 C 11.197788 16.136814 11.152125 15.173967 11.152344 13.865234 C 11.152597 12.346526 11.190846 11.339566 11.386719 10.484375 C 11.582591 9.6291838 11.992643 8.946607 12.519531 8.375 C 12.912991 7.9481467 13.368708 7.6149884 13.869141 7.3652344 A 5 5 0 0 0 12 7 z "
       id="circle10" />
    <path
       style="fill:#f74e66"
       d="m 19.191406,5.4003906 c 0.457072,0.7576065 0.763945,1.6088236 0.917969,2.5136719 0.305181,0.2105786 0.581753,0.4527681 0.826172,0.7304687 0.563969,0.6407018 0.87704,1.4075828 0.996094,2.3691408 C 21.694675,8.908737 20.795609,7.0012455 19.435547,5.5078125 19.471087,5.5064625 19.286609,5.364962 19.191406,5.4003906 Z m 2.740235,5.6132814 c 0.03968,0.320519 0.05804,0.663133 0.05664,1.029297 -0.0052,1.395743 -0.286752,2.600711 -0.9375,4.082031 -0.115613,0.263174 -0.179031,0.457947 -0.25,0.664062 C 21.562009,15.398034 22,13.810105 22,12.117188 22,11.743422 21.9725,11.376655 21.931641,11.013672 Z M 5.9023438,8.0449219 C 5.6542059,7.8851222 5.7255366,9.2492549 5.6914062,8.453125 3.3521702,10.262113 2,8.9540944 2,12.117188 2,17.575515 6.4771526,22 12,22 c 0.03713,0 0.07235,-0.0074 0.109375,-0.0078 0.680371,-0.291836 1.445631,-0.505731 2.240234,-0.650391 1.7e-5,-0.0027 3.4e-5,-0.0055 0,-0.0078 l -0.265625,0.04492 V 21.054688 20.619141 L 13.810547,20.53125 C 13.339688,20.380773 13.046896,20.308027 12.697266,20.080078 12.347635,19.85213 12.135046,19.501549 11.998047,19.248047 11.631807,18.570357 11.42201,17.838895 11.298828,16.871094 9.4171859,16.310815 7.6948817,15.214946 7.3320312,14.15625 6.9877772,13.151812 7.0751098,12.022905 8.0117188,11.398438 8.5204536,11.075499 9.2621307,10.756193 10.435547,10.71875 c 1.071913,-0.704952 0.551562,-0.624459 0.5,-0.8378906 C 10.602565,9.7898062 10.011417,9.6637901 9.1953125,9.0214844 8.4724791,8.4525863 8.135779,8.2364734 6.0292969,8.2167969 5.9795527,8.1210114 5.937792,8.0677504 5.9023438,8.0449219 Z"
       id="ellipse841"
       inkscape:connector-curvature="0" />
    <path
       style="opacity:0.1"
       d="M 5.8417969 4.828125 C 3.6026935 6.5596784 2.1337541 9.2147937 2.0117188 12.212891 C 2.1397628 16.807534 6.3339688 20.5 11.5 20.5 C 12.092547 20.5 12.664777 20.433993 13.226562 20.339844 C 13.04472 20.272995 12.877197 20.197388 12.697266 20.080078 C 12.347635 19.85213 12.135046 19.501549 11.998047 19.248047 C 11.631807 18.570357 11.42201 17.838895 11.298828 16.871094 C 9.5203041 16.488089 8.2264943 15.365962 7.8105469 14.152344 C 7.4662927 13.147905 7.5790161 12.724078 8.515625 12.099609 C 9.02436 11.77667 9.740647 11.556975 10.914062 11.519531 C 11.056731 11.425704 11.150459 11.352888 11.255859 11.275391 C 11.288965 10.995708 11.330375 10.730373 11.386719 10.484375 C 11.415927 10.356849 11.459636 10.241148 11.498047 10.121094 C 11.073432 9.9533511 10.526614 9.6985731 9.9492188 9.2441406 C 9.2263848 8.6752425 8.3115603 7.5294422 6.2050781 7.5097656 C 5.8071244 6.7434816 5.880803 5.7379877 5.8417969 4.828125 z "
       id="path15" />
    <path
       style="fill:#ff7f1f"
       d="M 5.9414062,3.9296875 C 3.7023029,5.6612409 2.133754,8.7147937 2.0117188,11.712891 2.1397628,16.307534 6.3339688,20 11.5,20 c 0.348848,0 0.69069,-0.02134 1.029297,-0.05469 -0.24984,-0.217772 -0.418383,-0.488417 -0.53125,-0.697265 C 11.572239,18.460132 11.35839,17.591912 11.25,16.359375 9.4973653,15.966338 8.2225732,14.854522 7.8105469,13.652344 7.4662927,12.647905 7.5790161,12.224078 8.515625,11.599609 9.02436,11.27667 9.740647,11.056974 10.914062,11.019531 c 0.195408,-0.128511 0.301312,-0.217803 0.433594,-0.318359 0.01375,-0.07077 0.02334,-0.148163 0.03906,-0.216797 C 11.452176,10.198591 11.548541,9.9389846 11.6582,9.6894531 11.225203,9.5298113 10.594115,9.251699 9.9492188,8.7441406 9.2263848,8.1752425 8.4111698,7.0294422 6.3046875,7.0097656 5.9067338,6.2434816 5.9804124,4.8395503 5.9414062,3.9296875 Z"
       id="path17"
       inkscape:connector-curvature="0" />
    <path
       style="fill:#ffba36"
       d="M 6.46875 10.001953 C 5.7882306 9.9871881 5.072269 10.220692 4.6171875 10.53125 C 4.5356745 10.61276 5.408766 11.989864 6.9296875 12.005859 C 6.7888702 14.459268 8.749407 15.584447 9.9824219 15.939453 L 9.9824219 15.9375 C 9.8830619 15.88824 9.7873106 15.837389 9.6933594 15.783203 C 9.6845794 15.778103 9.6747506 15.772678 9.6660156 15.767578 C 9.6134976 15.736868 9.5624679 15.704025 9.5117188 15.671875 C 9.5017787 15.665575 9.4922919 15.660637 9.4824219 15.654297 C 9.4316249 15.621617 9.3809834 15.586785 9.3320312 15.552734 C 9.3243512 15.547434 9.3162288 15.542479 9.3085938 15.537109 C 9.2804937 15.517319 9.2540335 15.498736 9.2265625 15.478516 C 9.1726885 15.438856 9.1197745 15.396726 9.0683594 15.355469 C 9.0561594 15.345669 9.04331 15.336042 9.03125 15.326172 C 8.994835 15.296352 8.9589498 15.266908 8.9238281 15.236328 C 8.9067281 15.221458 8.8898329 15.206456 8.8730469 15.191406 C 8.8486719 15.169536 8.8244982 15.14722 8.8007812 15.125 C 8.7778613 15.10354 8.7547149 15.082317 8.7324219 15.060547 C 8.7140269 15.042557 8.6957024 15.024039 8.6777344 15.005859 C 8.6516194 14.979439 8.6267615 14.952621 8.6015625 14.925781 C 8.6015625 14.925781 8.5996094 14.925781 8.5996094 14.925781 C 8.5840294 14.909161 8.5699125 14.89178 8.5546875 14.875 C 8.5332325 14.85138 8.5109784 14.826644 8.4902344 14.802734 C 8.4738994 14.783884 8.4592494 14.765114 8.4433594 14.746094 C 8.4222094 14.720794 8.4012124 14.695512 8.3808594 14.669922 C 8.3693794 14.655472 8.3569231 14.641483 8.3457031 14.626953 C 8.3201781 14.593923 8.2956754 14.560814 8.2714844 14.527344 C 8.2618544 14.514004 8.2516125 14.499738 8.2421875 14.486328 C 8.2170425 14.450578 8.1935239 14.415094 8.1699219 14.378906 C 8.1634819 14.369006 8.1567206 14.359529 8.1503906 14.349609 C 8.1269306 14.312869 8.1038832 14.275419 8.0820312 14.238281 C 8.0773813 14.230381 8.0729094 14.222724 8.0683594 14.214844 C 8.0463394 14.176744 8.0261644 14.138065 8.0058594 14.099609 C 8.0021094 14.092509 7.9978506 14.085255 7.9941406 14.078125 C 7.9729306 14.037235 7.9528398 13.996299 7.9335938 13.955078 C 7.9295437 13.946478 7.92581 13.938338 7.921875 13.929688 C 7.903035 13.888378 7.8840175 13.846264 7.8671875 13.804688 C 7.8645375 13.798087 7.861995 13.791746 7.859375 13.785156 C 7.84182 13.740906 7.8257919 13.696822 7.8105469 13.652344 C 7.4662927 12.647906 7.5790161 12.224078 8.515625 11.599609 C 9.02436 11.27667 9.7406466 11.058928 10.914062 11.021484 C 11.098067 10.900473 11.217657 10.808324 11.347656 10.710938 C 11.361921 10.636966 11.370313 10.556005 11.386719 10.484375 C 11.410894 10.378826 11.447999 10.284 11.478516 10.183594 C 9.8726757 11.106971 8.360749 10.493307 6.9296875 10.054688 C 6.7800612 10.022747 6.6257928 10.005359 6.46875 10.001953 z "
       id="path19" />
  </g>
  <g
     inkscape:groupmode="layer"
     id="layer5"
     inkscape:label="Avatar"
     style="display:inline">
    <g
       id="g4360"
       transform="matrix(1.0302516,0,0,1.0302516,2.0693793,-0.75777879)">
      <path
         sodipodi:nodetypes="cscccsssssssssssssccc"
         inkscape:connector-curvature="0"
         id="path4256-6"
         d="m 8.947368,23.674372 c 0.644834,-0.554959 1.964018,-1.076812 3.289474,-1.301274 l 0.394737,-0.06685 v -1.133323 -1.133324 l -0.940163,-0.300457 c -0.904778,-0.289149 -0.949977,-0.318618 -1.200918,-0.78296 -0.552212,-1.021813 -0.703663,-2.047529 -0.703209,-4.762548 4.84e-4,-2.907284 0.184575,-3.711028 1.069969,-4.6715681 0.854985,-0.927549 1.89485,-1.2888796 3.353268,-1.1651887 1.545946,0.1311143 2.65572,0.5952743 3.373836,1.4110965 0.593176,0.6738823 0.784901,1.3261303 0.779861,2.6530763 -0.0047,1.238832 -0.230259,2.210783 -0.829701,3.575316 -0.462581,1.05299 -0.587154,1.69056 -0.587154,3.005079 0,1.163726 0.312563,3.101814 0.549057,3.404512 0.193329,0.247447 0.356731,0.377863 1.214101,0.969006 0.419737,0.289402 0.763158,0.548427 0.763158,0.57561 0,0.02718 -2.451316,0.0475 -5.447368,0.04515 l -5.447369,-0.0043 0.368421,-0.317072 z"
         style="fill:#ba85fe;fill-opacity:1" />
      <path
         sodipodi:nodetypes="cscccssssssssssssscccsssssssssccssssss"
         inkscape:connector-curvature="0"
         id="path4256-5"
         d="M 8.9473684,23.674372 C 9.5922016,23.119413 10.911386,22.59756 12.236842,22.373098 l 0.394737,-0.06685 v -1.133323 -1.133324 l -0.940163,-0.300457 c -0.904778,-0.289149 -0.949977,-0.318618 -1.200918,-0.78296 -0.5522118,-1.021813 -0.7036628,-2.047529 -0.7032088,-4.762548 4.842e-4,-2.907284 0.1845746,-3.711028 1.0699688,-4.6715681 0.854985,-0.927549 1.89485,-1.2888796 3.353268,-1.1651887 1.545946,0.1311143 2.65572,0.5952743 3.373836,1.4110965 0.593176,0.6738823 0.784901,1.3261303 0.779861,2.6530763 -0.0047,1.238832 -0.230259,2.210783 -0.829701,3.575316 -0.462581,1.05299 -0.587154,1.69056 -0.587154,3.005079 0,1.163726 0.312563,3.101814 0.549057,3.404512 0.193329,0.247447 0.356731,0.377863 1.214101,0.969006 0.419737,0.289402 0.763158,0.548427 0.763158,0.57561 0,0.02718 -2.451316,0.0475 -5.447368,0.04515 l -5.4473686,-0.0043 0.368421,-0.317072 z m 9.5529666,0.03521 c 0.02428,-0.07288 -0.1346,-0.286043 -0.353074,-0.473684 -0.91489,-0.785777 -1.132295,-1.55649 -1.520202,-3.159554 -0.495604,-2.048129 -0.816596,-3.809012 -0.106571,-5.416577 0.269593,-0.610384 1.39845,-3.466656 0.10678,-5.2377832 C 15.791293,8.2757004 13.308103,8.1210597 11.900785,8.8390199 11.374404,9.1075594 10.663182,9.9047816 10.365,10.560511 c -0.3692211,0.81195 -0.5054133,2.14831 -0.441678,4.333878 0.060061,2.059558 0.28112,3.242595 0.721456,3.86099 0.483091,0.678438 1.581833,0.881024 3.039433,0.56041 0.376315,-0.08277 0.768523,-0.152163 0.871572,-0.154196 0.175518,-0.0035 0.174479,0.0146 -0.01644,0.285775 -0.324431,0.460807 -1.439518,2.257517 -1.625436,2.619026 -0.149591,0.29087 -0.271859,0.356238 -1.041694,0.556911 -1.229264,0.320434 -1.739618,0.520089 -2.0640671,0.807479 -0.238944,0.211652 -0.2578016,0.265798 -0.1239324,0.355848 0.249572,0.16788 8.7593005,0.09351 8.8161215,-0.07705 z"
         style="fill:#a87bed;fill-opacity:1" />
      <path
         sodipodi:nodetypes="cscccssssssssssssscccsssssssscccssss"
         inkscape:connector-curvature="0"
         id="path4256"
         d="M 8.9473684,23.674372 C 9.5922016,23.119413 10.911386,22.59756 12.236842,22.373098 l 0.394737,-0.06685 v -1.133323 -1.133324 l -0.940163,-0.300457 c -0.904778,-0.289149 -0.949977,-0.318618 -1.200918,-0.78296 -0.5522118,-1.021813 -0.7036628,-2.047529 -0.7032088,-4.762548 4.842e-4,-2.907284 0.1845746,-3.711028 1.0699688,-4.6715682 0.854985,-0.927549 1.89485,-1.2888796 3.353268,-1.1651887 1.545946,0.1311143 2.65572,0.5952743 3.373836,1.4110965 0.593176,0.6738824 0.784901,1.3261304 0.779861,2.6530764 -0.0047,1.238832 -0.230259,2.210783 -0.829701,3.575316 -0.462581,1.05299 -0.587154,1.69056 -0.587154,3.005079 0,1.163726 0.312563,3.101814 0.549057,3.404512 0.193329,0.247447 0.356731,0.377863 1.214101,0.969006 0.419737,0.289402 0.763158,0.548427 0.763158,0.57561 0,0.02718 -2.451316,0.0475 -5.447368,0.04515 l -5.4473686,-0.0043 0.368421,-0.317072 z m 9.5529666,0.03521 c 0.02428,-0.07288 -0.1346,-0.286043 -0.353074,-0.473684 -0.91489,-0.785777 -1.052184,-1.084036 -1.378057,-2.993718 -0.251465,-1.47364 -0.105886,-2.642309 0.533082,-4.279417 1.264608,-3.240067 1.185232,-4.840725 -0.319655,-6.446016 C 16.012319,8.4817031 13.308103,8.1210596 11.900785,8.8390198 11.374404,9.1075593 10.663182,9.9047815 10.365,10.560511 c -0.3692211,0.81195 -0.5054133,2.14831 -0.441678,4.333878 0.060061,2.059558 0.28112,3.242595 0.721456,3.86099 0.443227,0.801645 1.354076,0.878881 2.183515,1.000494 0.07835,1.513584 0.07134,0.206351 0.08561,2.310521 -0.149591,0.29087 -0.271859,0.356238 -1.041694,0.556911 -1.229264,0.320434 -1.739618,0.520089 -2.0640671,0.807479 -0.238944,0.211652 -0.2578016,0.265798 -0.1239324,0.355848 0.249572,0.16788 8.7593005,0.09351 8.8161255,-0.07705 z"
         style="fill:#8f72d0;fill-opacity:1" />
    </g>
  </g>
  <g
     inkscape:groupmode="layer"
     id="layer2"
     inkscape:label="Mask"
     style="display:none">
    <path
       style="color:#000000;font-style:normal;font-variant:normal;font-weight:normal;font-stretch:normal;font-size:medium;line-height:normal;font-family:sans-serif;font-variant-ligatures:normal;font-variant-position:normal;font-variant-caps:normal;font-variant-numeric:normal;font-variant-alternates:normal;font-feature-settings:normal;text-indent:0;text-align:start;text-decoration:none;text-decoration-line:none;text-decoration-style:solid;text-decoration-color:#000000;letter-spacing:normal;word-spacing:normal;text-transform:none;writing-mode:lr-tb;direction:ltr;text-orientation:mixed;dominant-baseline:auto;baseline-shift:baseline;text-anchor:start;white-space:normal;shape-padding:0;clip-rule:nonzero;display:inline;overflow:visible;visibility:visible;opacity:1;isolation:auto;mix-blend-mode:normal;color-interpolation:sRGB;color-interpolation-filters:linearRGB;solid-color:#000000;solid-opacity:1;vector-effect:none;fill:#800000;fill-opacity:1;fill-rule:nonzero;stroke:none;stroke-width:2;stroke-linecap:butt;stroke-linejoin:miter;stroke-miterlimit:4;stroke-dasharray:none;stroke-dashoffset:0;stroke-opacity:1;color-rendering:auto;image-rendering:auto;shape-rendering:auto;text-rendering:auto;enable-background:accumulate"
       d="M 16.166016,6.8320312 C 14.721057,6.8479131 13.453153,7.3621401 12.519531,8.375 c -0.526888,0.571607 -0.93694,1.2541834 -1.132812,2.109375 -0.195873,0.855191 -0.234122,1.862151 -0.234375,3.380859 -4.73e-4,2.834383 0.180066,4.151119 0.845703,5.382813 0.136999,0.253502 0.349588,0.604083 0.699219,0.832031 0.34963,0.227949 0.642422,0.300695 1.113281,0.451172 l 0.273437,0.08789 v 0.435547 0.324218 l 0.265625,-0.04492 c 3.4e-5,0.0023 1.7e-5,0.0051 0,0.0078 -1.086999,0.197891 -2.122924,0.522523 -2.955078,1.003906 -0.277696,0.158912 -0.533394,0.334477 -0.759765,0.529297 l -0.347657,0.298828 -2.0722652,1.783203 8.3046872,0.0059 c 1.545819,0.0012 2.950865,-0.0032 3.972657,-0.01172 0.510895,-0.0042 0.924062,-0.0076 1.216796,-0.01367 0.146368,-0.003 0.261577,-0.0078 0.351563,-0.01172 0.04499,-0.0019 0.08231,-0.0035 0.130859,-0.0078 0.02428,-0.0021 0.04605,-0.0028 0.107422,-0.01367 0.03069,-0.0054 0.06572,-0.0075 0.166016,-0.04297 0.02508,-0.0089 0.09352,-0.03895 0.09375,-0.03906 2.3e-4,-1.09e-4 0.15219,-0.08778 0.152344,-0.08789 1.53e-4,-1.09e-4 0.238204,-0.240125 0.238281,-0.240234 7.7e-5,-1.1e-4 0.183594,-0.576063 0.183593,-0.576172 0,-4.38e-4 -0.04475,-0.298275 -0.04492,-0.298828 -1.72e-4,-5.54e-4 -0.04615,-0.120525 -0.06641,-0.160157 -0.04052,-0.07926 -0.07113,-0.119851 -0.0957,-0.152343 -0.04915,-0.06499 -0.07755,-0.09309 -0.101562,-0.117188 -0.04802,-0.0482 -0.07703,-0.07238 -0.109375,-0.09961 -0.06469,-0.05446 -0.13135,-0.105987 -0.210938,-0.166016 -0.159175,-0.120057 -0.363769,-0.266001 -0.589844,-0.421875 -0.725443,-0.500182 -0.845972,-0.594193 -0.949218,-0.710937 -0.02203,-0.0456 -0.06703,-0.130656 -0.0918,-0.226563 -0.05287,-0.204904 -0.112216,-0.49688 -0.164063,-0.818359 -0.103692,-0.64296 -0.179687,-1.417799 -0.179687,-1.927735 0,-0.322776 0.0053,-0.590046 0.01953,-0.824218 0.04275,-0.702518 0.169415,-1.112177 0.501953,-1.869141 0.650748,-1.48132 0.932251,-2.686288 0.9375,-4.082031 0.0056,-1.464655 -0.300775,-2.5441688 -1.052734,-3.3984378 C 19.982424,7.5616699 18.5455,7.0039813 16.794919,6.8555118 16.581691,6.8374278 16.372435,6.8298058 16.166013,6.8320738 Z"
       id="path4256-6-6-2"
       inkscape:connector-curvature="0" />
  </g>
</svg>
