<?xml version="1.0" encoding="UTF-8"?>
<svg width="200" height="199.42" version="1.0" xmlns="http://www.w3.org/2000/svg">
	<g transform="translate(-34.777,-129.8)">
		<g transform="matrix(.87464 0 0 .87464 14.731 23.409)" fill="#1793d1">
			<path d="m137.21 121.65c-10.178 24.953-16.316 41.274-27.648 65.486 6.9476 7.3645 15.475 15.941 29.324 25.627-14.889-6.1268-25.046-12.278-32.635-18.661-14.503 30.261-37.222 73.365-83.33 156.21 36.239-20.922 64.331-33.819 90.511-38.741-1.1242-4.8351-1.7633-10.065-1.72-15.522l0.043-1.161c0.57503-23.217 12.653-41.071 26.959-39.859 14.307 1.2122 25.428 21.028 24.852 44.245-0.10819 4.3687-0.60093 8.5714-1.4619 12.469 25.896 5.0656 53.687 17.931 89.436 38.569-7.0489-12.978-13.34-24.675-19.349-35.817-9.4642-7.3354-19.336-16.882-39.472-27.218 13.841 3.5964 23.75 7.7456 31.475 12.383-61.089-113.74-66.036-128.85-86.985-178.01z" fill-rule="evenodd" stroke-width="1.2034"/>
		</g>
	</g>
</svg>
