<?xml version="1.0" encoding="UTF-8"?>
<svg width="200" height="199.42" version="1.0" xmlns="http://www.w3.org/2000/svg" xmlns:xlink="http://www.w3.org/1999/xlink">
	<g transform="translate(-34.777 -129.8)">
		<g transform="matrix(.87464 0 0 .87464 14.731 23.409)" fill="#1793d1">
			<path d="m137.24 140.64c-8.4571 20.735-13.558 34.297-22.974 54.416 5.7731 6.1195 12.859 13.246 24.367 21.295-12.372-5.0911-20.812-10.202-27.118-15.506-12.051 25.145-30.93 60.963-69.243 129.8 30.113-17.385 53.456-28.102 75.21-32.192-0.93414-4.0177-1.4652-8.3637-1.4292-12.898l0.0357-0.96469c0.47782-19.292 10.514-34.128 22.402-33.121 11.888 1.0073 21.129 17.473 20.651 36.765-0.0899 3.6302-0.49934 7.1224-1.2148 10.361 21.518 4.2093 44.611 14.9 74.317 32.049-5.8573-10.784-11.085-20.504-16.078-29.762-7.8643-6.0954-16.067-14.028-32.799-22.617 11.501 2.9884 19.735 6.4362 26.154 10.29-50.762-94.51-54.873-107.07-72.28-147.92z" fill-rule="evenodd"/>
			<g>
				<path d="m685.47 263.84v-5.3294h-1.9908v-0.71307h4.7895v0.71307h-1.9991v5.3294h-0.79962"/>
				<path d="m689.1 263.84v-6.0425h1.2036l1.4303 4.2784c0.13189 0.39843 0.22806 0.69658 0.28852 0.89442 0.0687-0.21983 0.17586-0.5427 0.3215-0.96862l1.4467-4.2042h1.0758v6.0425h-0.77077v-5.0574l-1.7559 5.0574h-0.72131l-1.7476-5.144v5.144h-0.77077"/>
			</g>
		</g>
	</g>
</svg>
