<?xml version="1.0" encoding="UTF-8"?>
<svg width="48" height="48" version="1.1" viewBox="0 0 48 48" xmlns="http://www.w3.org/2000/svg" xmlns:cc="http://creativecommons.org/ns#" xmlns:dc="http://purl.org/dc/elements/1.1/" xmlns:rdf="http://www.w3.org/1999/02/22-rdf-syntax-ns#" xmlns:xlink="http://www.w3.org/1999/xlink">
	<defs>
		<linearGradient id="linearGradient4148">
			<stop offset="0"/>
			<stop stop-opacity="0" offset="1"/>
		</linearGradient>
		<linearGradient id="linearGradient4144" x1="25" x2="25" y1="1004.4" y2="1052.4" gradientUnits="userSpaceOnUse">
			<stop stop-color="#1abc9c" offset="0"/>
			<stop stop-color="#2980b9" offset="1"/>
		</linearGradient>
		<linearGradient id="linearGradient4154" x1="24" x2="49" y1="1028.4" y2="1028.4" gradientTransform="matrix(.87348 .87348 -.87348 .87348 901.3 -895.22)" gradientUnits="userSpaceOnUse" xlink:href="#linearGradient4148"/>
		<linearGradient id="linearGradient4154-3" x1="24" x2="49" y1="1028.4" y2="1028.4" gradientTransform="matrix(.87348 .87348 -2.4567 2.4567 2529.4 -2523.3)" gradientUnits="userSpaceOnUse" xlink:href="#linearGradient4148"/>
		<linearGradient id="linearGradient4154-3-4" x1="24" x2="49" y1="1028.4" y2="1028.4" gradientTransform="matrix(.87348 .87348 -3.7123 3.7123 3820.6 -3814.5)" gradientUnits="userSpaceOnUse" xlink:href="#linearGradient4148"/>
	</defs>
	<g transform="translate(0 -1004.4)" fill-rule="evenodd" shape-rendering="auto">
		<circle cx="24" cy="1028.4" r="24" color="#000000" color-rendering="auto" fill="url(#linearGradient4144)" image-rendering="auto" solid-color="#000000" style="isolation:auto;mix-blend-mode:normal"/>
		<g transform="matrix(1.2353 0 0 1.2353 -5.6471 -241.97)">
			<path transform="matrix(.80952 0 0 .80952 4.5714 1008.9)" d="m27.494 20.506-6.9883 6.9883 16.602 16.6a24 24 0 0 0 6.9785-6.9961z" color="#000000" color-rendering="auto" fill="url(#linearGradient4154)" image-rendering="auto" opacity=".2" solid-color="#000000" style="isolation:auto;mix-blend-mode:normal"/>
			<path transform="matrix(.80952 0 0 .80952 4.5714 1008.9)" d="m33.826 14.174-0.44141 0.44141a13.279 13.279 0 0 1 3.8945 9.3848 13.279 13.279 0 0 1-13.279 13.279 13.279 13.279 0 0 1-9.3848-3.8945l-0.44141 0.44141 13.832 13.834a24 24 0 0 0 19.635-19.674z" color="#000000" color-rendering="auto" fill="url(#linearGradient4154-3)" image-rendering="auto" opacity=".2" solid-color="#000000" style="isolation:auto;mix-blend-mode:normal"/>
			<path transform="matrix(.80952 0 0 .80952 4.5714 1008.9)" d="m38.85 9.1465v0.00391l-1.1543 1.1543a19.379 19.379 0 0 1 5.6836 13.695 19.379 19.379 0 0 1-19.379 19.379 19.379 19.379 0 0 1-13.695-5.6855l-1.1543 1.1562 8.1875 8.1875a24 24 0 0 0 6.6621 0.96289 24 24 0 0 0 24-24 24 24 0 0 0-0.95312-6.6562z" color="#000000" color-rendering="auto" fill="url(#linearGradient4154-3-4)" image-rendering="auto" opacity=".2" solid-color="#000000" style="isolation:auto;mix-blend-mode:normal"/>
			<path d="m24 1011.4a1.4 1.4 0 0 0-1.365 1.0944 16 16 0 0 0-8.9213 3.7031 1.4 1.4 0 0 0-0.71368-0.1975 1.4 1.4 0 0 0-1.4 1.4 1.4 1.4 0 0 0 0.1972 0.7132 16 16 0 0 0-3.7103 8.924 1.4 1.4 0 0 0-1.0869 1.3628 1.4 1.4 0 0 0 1.0944 1.3651 16 16 0 0 0 3.7031 8.9212 1.4 1.4 0 0 0-0.19752 0.7137 1.4 1.4 0 0 0 1.4 1.4 1.4 1.4 0 0 0 0.71112-0.1959 16 16 0 0 0 8.9262 3.7092 1.4 1.4 0 0 0 1.3627 1.0867 1.4 1.4 0 0 0 1.3654-1.0956 16 16 0 0 0 8.9318-3.6952 1.4 1.4 0 0 0 0.7028 0.1908 1.4 1.4 0 0 0 1.4-1.4 1.4 1.4 0 0 0-0.19672-0.7124 16 16 0 0 0 3.7233-8.9278 1.4 1.4 0 0 0 1.0734-1.3598 1.4 1.4 0 0 0-1.0956-1.3654 16 16 0 0 0-3.6958-8.9309 1.4 1.4 0 0 0 0.1914-0.7037 1.4 1.4 0 0 0-1.4-1.4 1.4 1.4 0 0 0-0.71272 0.1969 16 16 0 0 0-8.9275-3.7232 1.4 1.4 0 0 0-1.3598-1.0737zm0 0.6001a0.8 0.8 0 0 1 0.8 0.7999 0.8 0.8 0 0 1-0.8 0.8 0.8 0.8 0 0 1-0.8-0.8 0.8 0.8 0 0 1 0.8-0.7999zm-1.3168 1.271a1.4 1.4 0 0 0 1.3168 0.9289 1.4 1.4 0 0 0 1.3093-0.9092 15.2 15.2 0 0 1 8.4352 3.4939 1.4 1.4 0 0 0-0.14448 0.6153 1.4 1.4 0 0 0 1.4 1.4 1.4 1.4 0 0 0 0.61776-0.1446 15.2 15.2 0 0 1 3.4981 8.4321 1.4 1.4 0 0 0-0.91588 1.3125 1.4 1.4 0 0 0 0.90916 1.3093 15.2 15.2 0 0 1-3.4938 8.4352 1.4 1.4 0 0 0-0.61532-0.1445 1.4 1.4 0 0 0-1.4 1.4 1.4 1.4 0 0 0 0.14392 0.6163 15.2 15.2 0 0 1-8.4314 3.4996 1.4 1.4 0 0 0-1.3125-0.9159 1.4 1.4 0 0 0-1.309 0.9082 15.2 15.2 0 0 1-8.4414-3.4805 1.4 1.4 0 0 0 0.15036-0.6277 1.4 1.4 0 0 0-1.4-1.4 1.4 1.4 0 0 0-0.61664 0.1441 15.2 15.2 0 0 1-3.5117-8.4274 1.4 1.4 0 0 0 0.92836-1.3167 1.4 1.4 0 0 0-0.9082-1.309 15.2 15.2 0 0 1 3.4811-8.4412 1.4 1.4 0 0 0 0.62708 0.1502 1.4 1.4 0 0 0 1.4-1.4 1.4 1.4 0 0 0-0.14436-0.6172 15.2 15.2 0 0 1 8.4275-3.5117zm1.3168 2.9288a1.4 1.4 0 0 0-1.3678 1.1051 11.2 11.2 0 0 0-9.8322 11.095 11.2 11.2 0 0 0 9.8342 11.1 1.4 1.4 0 0 0 1.3658 1.1004 1.4 1.4 0 0 0 1.3678-1.105 11.2 11.2 0 0 0 9.8322-11.095 11.2 11.2 0 0 0-9.8342-11.1 1.4 1.4 0 0 0-1.3658-1.1004zm-11 0.4001a0.8 0.8 0 0 1 0.8 0.8 0.8 0.8 0 0 1-0.8 0.8 0.8 0.8 0 0 1-0.8-0.8 0.8 0.8 0 0 1 0.8-0.8zm22 0a0.8 0.8 0 0 1 0.8 0.8 0.8 0.8 0 0 1-0.8 0.8 0.8 0.8 0 0 1-0.8-0.8 0.8 0.8 0 0 1 0.8-0.8zm-11 0.2a0.8 0.8 0 0 1 0.8 0.7999 0.8 0.8 0 0 1-0.8 0.8002 0.8 0.8 0 0 1-0.8-0.8002 0.8 0.8 0 0 1 0.8-0.7999zm-1.3077 1.2985a1.4 1.4 0 0 0 1.3077 0.9014 1.4 1.4 0 0 0 1.3056-0.8988 10.4 10.4 0 0 1 9.0944 10.299 10.4 10.4 0 0 1-9.0922 10.302 1.4 1.4 0 0 0-1.3078-0.9014 1.4 1.4 0 0 0-1.3055 0.8988 10.4 10.4 0 0 1-9.0945-10.299 10.4 10.4 0 0 1 9.0923-10.302zm1.3077 6.3015a4 4 0 0 0-4 4 4 4 0 0 0 4 4 4 4 0 0 0 4-4 4 4 0 0 0-4-4zm-15.6 3.2001a0.8 0.8 0 0 1 0.8 0.7999 0.8 0.8 0 0 1-0.8 0.7999 0.8 0.8 0 0 1-0.8-0.7999 0.8 0.8 0 0 1 0.8-0.7999zm31.2 0a0.8 0.8 0 0 1 0.8 0.7999 0.8 0.8 0 0 1-0.8 0.7999 0.8 0.8 0 0 1-0.8-0.7999 0.8 0.8 0 0 1 0.8-0.7999zm-15.6 10.8a0.8 0.8 0 0 1 0.8 0.8002 0.8 0.8 0 0 1-0.8 0.7999 0.8 0.8 0 0 1-0.8-0.7999 0.8 0.8 0 0 1 0.8-0.8002zm-11 0.2001a0.8 0.8 0 0 1 0.8 0.8 0.8 0.8 0 0 1-0.8 0.8 0.8 0.8 0 0 1-0.8-0.8 0.8 0.8 0 0 1 0.8-0.8zm22 0a0.8 0.8 0 0 1 0.8 0.8 0.8 0.8 0 0 1-0.8 0.8 0.8 0.8 0 0 1-0.8-0.8 0.8 0.8 0 0 1 0.8-0.8zm-11 4.6a0.8 0.8 0 0 1 0.8 0.8 0.8 0.8 0 0 1-0.8 0.7999 0.8 0.8 0 0 1-0.8-0.7999 0.8 0.8 0 0 1 0.8-0.8z" color="#000000" color-rendering="auto" fill="#fcfcfc" image-rendering="auto" solid-color="#000000" style="isolation:auto;mix-blend-mode:normal"/>
		</g>
	</g>
</svg>
