<?xml version="1.0" encoding="UTF-8"?>
<svg enable-background="new 0 0 779.617 170.079" height="600" id="kubuntu__x5F__black" version="1.1" viewbox="0 0 600 600" width="600" xml:space="preserve" xmlns="http://www.w3.org/2000/svg" xmlns:cc="http://creativecommons.org/ns#" xmlns:dc="http://purl.org/dc/elements/1.1/" xmlns:rdf="http://www.w3.org/1999/02/22-rdf-syntax-ns#">
	<g transform="matrix(6.7228 0 0 6.7229 -5263.9 -70.921)">
		<path d="m872.24 55.171c0 24.644-19.979 44.625-44.625 44.625-24.645 0-44.623-19.981-44.623-44.625 0-24.644 19.979-44.622 44.623-44.622 24.646 0 44.625 19.978 44.625 44.622z" fill="#0079c1">
		</path>
		<g fill="#fff">
			<g transform="matrix(.41529 0 0 .41529 609.14 80.907)">
				<path d="m490.89-23.585 3.6518-79.225-24.284-22.12c-0.57715-0.37695-1.3369-0.29883-1.8218 0.18945l-11.219 11.217c-0.47168 0.47314-0.56055 1.208-0.21289 1.7808l13.134 21.631c-2.3296 3.9165-4.1953 8.1396-5.5298 12.594l-24.114 5.0156c-0.6709 0.13916-1.1543 0.7334-1.1543 1.4219v15.863c0 0.6709 0.45801 1.252 1.1045 1.4082l23.404 5.7207c1.248 5.1592 3.1826 10.051 5.7388 14.546l-13.546 20.658c-0.37793 0.57715-0.29883 1.3379 0.18945 1.8242l11.215 11.217c0.47168 0.4707 1.208 0.56152 1.7832 0.21582z" fill="#fff">
				</path>
			</g>
			<g transform="matrix(-.21579 .35482 -.35482 -.21579 919.23 -144.75)">
				<path d="m492.49-21.722 0.2923-79.602-22.522-23.606c-0.57715-0.37695-1.3369-0.29883-1.8218 0.18945l-11.219 11.217c-0.47168 0.47314-0.56055 1.208-0.21289 1.7808l13.134 21.631c-2.3296 3.9165-4.1953 8.1396-5.5298 12.594l-24.114 5.0156c-0.6709 0.13916-1.1543 0.7334-1.1543 1.4219v15.863c0 0.6709 0.45801 1.252 1.1045 1.4082l23.404 5.7207c1.248 5.1592 3.1826 10.051 5.7388 14.546l-13.546 20.658c-0.37793 0.57715-0.29883 1.3379 0.18945 1.8242l11.215 11.217c0.47168 0.4707 1.208 0.56152 1.7832 0.21582z" fill="#fff">
				</path>
			</g>
			<g transform="matrix(-.20732 -.35984 .35984 -.20732 958.86 231.67)">
				<path d="m491.64-24.019 1.6558-78.078-23.034-22.833c-0.57715-0.37695-1.3369-0.29883-1.8218 0.18945l-11.219 11.217c-0.47168 0.47314-0.56055 1.208-0.21289 1.7808l13.134 21.631c-2.3296 3.9165-4.1953 8.1396-5.5298 12.594l-24.114 5.0156c-0.6709 0.13916-1.1543 0.7334-1.1543 1.4219v15.863c0 0.6709 0.45801 1.252 1.1045 1.4082l23.404 5.7207c1.248 5.1592 3.1826 10.051 5.7388 14.546l-13.546 20.658c-0.37793 0.57715-0.29883 1.3379 0.18945 1.8242l11.215 11.217c0.47168 0.4707 1.208 0.56152 1.7832 0.21582z" fill="#fff">
				</path>
			</g>
		</g>
		<path d="m849.16 55.172c0 11.896-9.644 21.54-21.54 21.54-11.896 0-21.54-9.6448-21.54-21.54 0-11.896 9.6436-21.539 21.54-21.539 11.896 0 21.54 9.6433 21.54 21.539z" fill="#0079c1">
		</path>
	</g>
</svg>
