<?xml version="1.0" encoding="UTF-8"?>
<svg width="200" height="200" version="1.0" xmlns="http://www.w3.org/2000/svg" xmlns:cc="http://creativecommons.org/ns#" xmlns:dc="http://purl.org/dc/elements/1.1/" xmlns:rdf="http://www.w3.org/1999/02/22-rdf-syntax-ns#">
	<defs>
		<radialGradient id="radialGradient1055" cx="100.42" cy="99.636" r="80.344" gradientTransform="matrix(1.2394 -1.2394 1.2394 1.2394 -147.53 100.55)" gradientUnits="userSpaceOnUse">
			<stop offset="0"/>
			<stop stop-opacity="0" offset="1"/>
		</radialGradient>
	</defs>
	<path d="m100 1e-6c-55.224 0-100 44.771-100 100s44.776 100 100 100 100-44.771 100-100-44.776-100-100-100zm0.47883 13.849c47.583 0 86.188 38.573 86.188 86.151 0 47.583-38.61 86.151-86.188 86.151-25.693 0-48.748-11.26-64.53-29.098 6.4895-5.0366 17.347-3.8078 30.718-2.2836 6.4079 0.72898 13.713 1.5629 21.252 1.7311 21.064 0.12241 43.728-3.722 57.716-9.8342 9.0435-3.9661 14.834-6.5779 18.453-9.8711 1.305-1.0705 1.9904-2.8589 2.6888-4.7145l0.47881-1.2523c0.58625-1.4987 1.4276-4.7238 1.8048-6.4825 0.16823-0.76978 0.2508-1.5976-0.29466-2.0258l-1.9521 0.36833c-6.1377 3.6806-21.472 10.691-35.838 10.976-17.801 0.37213-53.68-17.921-57.422-19.853l-0.36833-0.44199c-0.89721-2.1411-6.2665-14.888-7.4033-17.569 25.825 17.006 47.237 26.419 63.646 27.882 18.245 1.6211 32.477-8.34 38.564-12.597 1.1878-0.81055 2.0956-1.4462 2.4678-1.5838l0.40516-0.66299c-1.0094-6.413-10.582-37.446-17.79-44.899-1.9983-2.0442-3.5871-4.0336-6.814-5.93-26.09-15.207-88.039-24.365-90.939-24.788l-0.47882 0.14733-0.18416 0.40516s-0.23234 12.864-0.25783 14.291c-2.1258-0.70349-8.7173-2.8615-18.158-5.4512 12.319-15.242 31.197-28.766 64.236-28.766zm22.762 45.598c0.43962-0.0066 0.88341-0.01466 1.326 0 14.615 0.52507 26.098 12.835 25.599 27.44-0.26 7.0655-3.2388 13.594-8.3978 18.416-5.1743 4.848-11.899 7.3749-19.006 7.1455-14.59-0.54546-26.073-12.855-25.599-27.44 0.2498-7.0757 3.2451-13.646 8.4346-18.453 4.8461-4.545 11.048-7.0097 17.643-7.1086zm-0.69982 7.8085c-4.2565 0.25878-8.2734 1.9871-11.418 4.9355-3.5837 3.3645-5.6983 7.9199-5.8564 12.854-0.33645 10.196 7.6415 18.776 17.827 19.153 4.9499 0.15292 9.6453-1.5812 13.26-4.9355 3.6041-3.3798 5.7034-7.9771 5.8564-12.891 0.34155-10.211-7.6733-18.759-17.864-19.116-0.61683-0.02294-1.1967-0.03697-1.8048 0zm4.8619 9.2449c4.5268 0 8.1768 2.4599 8.1768 5.488 0 3.0128-3.65 5.488-8.1768 5.488-4.5421 0-8.2136-2.4803-8.2136-5.488 0-3.0281 3.6715-5.488 8.2136-5.488z" fill="#73ba25" fill-rule="evenodd"/>
	<path d="m100 200c55.224 0 100-44.771 100-100 0-0.27766-0.02-0.55061-0.0223-0.82773-0.44707 54.846-45.031 99.172-99.978 99.172s-99.531-44.326-99.978-99.172c-0.0029 0.27712-0.02234 0.55007-0.02234 0.82773 0 55.229 44.776 100 100 100z" fill-rule="evenodd" opacity=".2"/>
	<path d="m161.18 38.824 6e-3 0.03516c15.734 15.608 25.484 37.236 25.484 61.141 0 47.583-38.61 86.15-86.188 86.15-23.897 0-45.507-9.7434-61.111-25.457l-0.05469-6e-3 36.299 36.299c7.8079 1.9581 15.974 3.0138 24.389 3.0138 55.224 0 100-44.771 100-100 0-8.8811-1.163-17.49-3.3359-25.688z" fill="url(#radialGradient1055)" opacity=".2"/>
</svg>
